<svg id="svg" version="1.1" xmlns="http://www.w3.org/2000/svg" xmlns:xlink="http://www.w3.org/1999/xlink" width="400" height="400" viewBox="0, 0, 400,400"><g id="svgg"><path id="path0" d="M0.000 200.000 L 0.000 400.000 200.000 400.000 L 400.000 400.000 400.000 200.000 L 400.000 0.000 200.000 0.000 L 0.000 0.000 0.000 200.000 M211.334 93.574 C 215.789 94.246,220.699 96.804,224.500 100.432 L 225.250 101.148 226.583 100.975 C 233.289 100.102,240.447 102.576,245.615 107.554 C 247.641 109.505,247.637 109.478,245.761 108.828 C 236.166 105.503,227.923 106.750,220.749 112.611 C 210.724 120.802,197.431 118.248,200.771 108.773 C 200.905 108.394,201.266 107.821,201.574 107.500 C 203.139 105.869,203.226 103.472,201.731 103.145 C 200.830 102.948,198.420 103.005,197.250 103.252 C 190.277 104.722,188.702 111.942,190.999 131.917 C 193.317 152.081,193.681 161.890,192.481 171.917 C 189.727 194.947,177.058 209.944,154.347 217.057 L 152.541 217.623 152.439 216.770 C 152.275 215.407,152.318 206.709,152.506 203.250 C 153.981 176.074,163.171 153.774,180.722 134.789 L 182.693 132.656 182.271 130.870 C 179.836 120.570,181.449 111.803,187.077 104.750 C 193.563 96.622,202.929 92.307,211.334 93.574 M211.790 101.755 C 210.306 102.763,210.245 104.862,211.666 106.057 C 213.939 107.970,217.065 104.909,215.413 102.388 C 214.693 101.288,212.930 100.980,211.790 101.755 M218.892 128.180 C 231.345 138.473,238.797 156.466,239.749 178.542 C 239.795 179.619,239.872 181.371,239.919 182.436 L 240.004 184.373 238.894 184.254 C 233.630 183.690,227.952 180.690,222.917 175.813 L 221.083 174.036 221.083 178.060 C 221.083 185.448,219.029 192.136,214.402 199.809 C 213.720 200.939,213.713 201.000,214.264 201.000 C 217.979 201.000,226.036 205.269,232.500 210.662 C 234.183 212.066,234.182 212.071,232.231 211.943 C 226.384 211.559,220.072 211.427,207.550 211.428 C 199.923 211.428,193.698 211.412,193.716 211.391 C 193.735 211.371,194.841 210.243,196.174 208.885 C 204.229 200.683,209.231 191.859,213.303 178.667 C 215.238 172.399,216.907 162.697,217.605 153.667 C 218.091 147.372,218.063 130.376,217.562 127.792 C 217.433 127.127,217.718 127.210,218.892 128.180 M119.417 229.769 C 128.444 231.932,129.718 248.128,121.208 252.542 C 116.475 254.998,110.703 253.028,108.389 248.167 C 106.464 244.124,106.532 237.698,108.536 234.338 C 110.929 230.325,114.855 228.677,119.417 229.769 M310.412 229.685 C 311.533 229.902,313.420 230.842,314.328 231.635 L 315.072 232.284 314.254 233.295 L 313.436 234.305 312.510 233.581 C 310.388 231.922,307.655 231.662,305.138 232.881 C 299.187 235.762,299.290 247.492,305.291 250.300 C 306.828 251.019,309.978 250.969,311.458 250.202 L 312.500 249.662 312.500 246.664 L 312.500 243.667 310.083 243.667 L 307.667 243.667 307.667 242.333 L 307.667 241.000 311.500 241.000 L 315.333 241.000 315.333 245.936 L 315.333 250.873 314.792 251.351 C 311.438 254.309,305.293 254.316,301.560 251.365 C 296.423 247.305,296.268 236.434,301.283 232.003 C 303.727 229.844,306.979 229.018,310.412 229.685 M100.333 231.167 L 100.333 232.500 96.833 232.500 L 93.333 232.500 93.333 242.833 L 93.333 253.167 91.833 253.167 L 90.333 253.167 90.333 242.833 L 90.333 232.500 86.833 232.500 L 83.333 232.500 83.333 231.167 L 83.333 229.833 91.833 229.833 L 100.333 229.833 100.333 231.167 M140.217 232.542 C 140.748 234.031,141.288 235.512,141.416 235.833 C 141.780 236.750,143.228 240.840,144.159 243.583 C 145.510 247.564,145.265 247.523,146.448 243.974 C 147.348 241.277,148.865 236.948,150.804 231.542 L 151.417 229.834 153.208 229.834 L 155.000 229.833 155.000 241.500 L 155.000 253.167 153.563 253.167 L 152.126 253.167 152.233 244.542 C 152.293 239.798,152.376 235.467,152.419 234.917 C 152.511 233.738,152.441 233.855,151.574 236.333 C 151.052 237.826,149.881 241.076,147.909 246.500 C 147.659 247.188,147.212 248.425,146.916 249.250 L 146.377 250.750 145.328 250.750 L 144.278 250.750 142.807 246.750 C 141.999 244.550,141.029 241.887,140.653 240.833 C 140.095 239.268,138.931 236.012,138.151 233.833 C 138.018 233.463,138.012 233.473,138.101 233.917 C 138.155 234.192,138.237 238.635,138.283 243.792 L 138.366 253.167 137.016 253.167 L 135.667 253.167 135.667 241.500 L 135.667 229.833 137.458 229.834 L 139.250 229.834 140.217 232.542 M168.915 230.125 C 168.980 230.285,169.393 231.429,169.834 232.667 C 170.275 233.904,170.908 235.667,171.240 236.583 C 172.557 240.218,172.902 241.194,173.880 244.048 C 174.469 245.764,174.947 246.922,175.016 246.798 C 175.082 246.680,175.548 245.346,176.052 243.833 C 176.556 242.321,177.329 240.071,177.770 238.833 C 178.211 237.596,179.099 235.083,179.744 233.250 L 180.917 229.917 182.792 229.870 L 184.667 229.822 184.667 241.501 L 184.667 253.180 183.208 253.131 L 181.750 253.083 181.700 246.917 C 181.657 241.574,181.771 237.909,182.091 234.333 L 182.173 233.417 181.939 234.083 C 181.724 234.695,181.273 235.956,179.350 241.333 C 178.973 242.387,178.040 244.938,177.278 247.000 L 175.892 250.750 174.886 250.799 C 173.921 250.846,173.872 250.829,173.693 250.382 C 173.482 249.859,172.673 247.640,172.096 246.000 C 171.886 245.404,171.110 243.267,170.371 241.250 C 169.633 239.233,168.723 236.721,168.349 235.667 L 167.670 233.750 167.747 235.167 C 167.789 235.946,167.872 240.315,167.930 244.875 L 168.035 253.167 166.601 253.167 L 165.167 253.167 165.167 241.500 L 165.167 229.833 166.982 229.833 C 168.555 229.833,168.813 229.872,168.915 230.125 M195.575 231.625 C 196.028 232.610,196.711 234.092,197.093 234.917 C 197.475 235.742,198.255 237.504,198.828 238.833 C 199.942 241.420,199.952 241.437,200.094 241.295 C 200.145 241.244,201.272 238.813,202.597 235.893 C 203.923 232.972,205.093 230.415,205.198 230.208 C 205.371 229.870,208.500 229.578,208.500 229.900 C 208.500 229.937,207.180 232.656,205.567 235.942 C 203.954 239.228,202.379 242.457,202.067 243.117 L 201.500 244.318 201.500 248.742 L 201.500 253.167 200.000 253.167 L 198.500 253.167 198.500 248.681 L 198.500 244.196 195.818 238.723 C 194.344 235.713,192.795 232.537,192.376 231.667 C 191.958 230.796,191.585 230.027,191.548 229.958 C 191.511 229.890,192.216 229.833,193.115 229.833 L 194.750 229.833 195.575 231.625 M241.167 231.167 L 241.167 232.500 237.751 232.500 L 234.336 232.500 234.293 242.792 L 234.250 253.083 232.708 253.131 L 231.167 253.179 231.167 242.840 L 231.167 232.500 227.667 232.500 L 224.167 232.500 224.167 231.167 L 224.167 229.833 232.667 229.833 L 241.167 229.833 241.167 231.167 M257.847 231.333 C 258.105 232.112,259.485 236.200,260.914 240.417 C 264.242 250.234,265.167 252.992,265.167 253.095 C 265.167 253.141,264.441 253.157,263.555 253.131 L 261.943 253.083 261.304 251.083 C 260.952 249.983,260.463 248.388,260.217 247.539 L 259.770 245.994 255.616 246.039 L 251.463 246.083 251.243 246.667 C 251.122 246.987,250.602 248.581,250.087 250.208 L 249.150 253.167 247.658 253.167 C 245.870 253.167,245.922 253.506,247.154 249.848 C 250.847 238.883,253.821 230.155,253.915 230.002 C 253.986 229.887,254.633 229.839,255.703 229.869 L 257.379 229.917 257.847 231.333 M276.842 232.417 C 277.630 233.792,279.439 236.942,280.863 239.417 C 283.799 244.523,284.114 245.090,285.335 247.462 C 285.819 248.403,286.233 249.153,286.254 249.128 C 286.275 249.104,286.232 248.408,286.158 247.583 C 286.084 246.758,286.018 242.427,286.012 237.958 L 286.000 229.833 287.417 229.833 L 288.833 229.833 288.833 241.500 L 288.833 253.167 287.269 253.167 L 285.705 253.167 283.287 248.958 C 281.957 246.644,280.049 243.325,279.047 241.583 C 278.045 239.842,276.715 237.442,276.091 236.250 C 275.468 235.058,274.911 234.031,274.854 233.967 C 274.797 233.902,274.838 234.952,274.946 236.300 C 275.054 237.647,275.147 241.994,275.154 245.958 L 275.167 253.167 273.667 253.167 L 272.167 253.167 272.167 241.494 L 272.167 229.821 273.788 229.869 L 275.409 229.917 276.842 232.417 M114.750 232.521 C 111.629 233.781,110.249 236.509,110.252 241.417 C 110.255 247.502,112.536 250.735,116.833 250.746 C 121.102 250.756,123.667 247.254,123.667 241.417 C 123.667 234.797,119.474 230.614,114.750 232.521 M255.416 232.750 C 255.171 233.800,254.381 236.467,252.762 241.708 L 252.208 243.500 255.521 243.500 C 258.060 243.500,258.833 243.451,258.833 243.292 C 258.833 243.177,258.394 241.696,257.857 240.000 C 257.321 238.304,256.711 236.317,256.502 235.583 C 255.525 232.146,255.545 232.199,255.416 232.750 M160.097 288.811 C 160.054 288.961,159.967 289.371,159.904 289.723 L 159.791 290.362 161.270 290.332 C 163.336 290.289,163.216 290.254,162.924 290.818 C 162.602 291.441,162.542 291.456,161.069 291.269 C 159.491 291.069,159.774 290.436,158.737 296.482 C 158.308 298.980,158.985 299.579,161.039 298.520 C 162.674 297.676,162.504 298.235,160.787 299.348 C 157.792 301.290,156.292 299.987,157.082 296.130 C 158.087 291.217,158.097 291.056,157.397 290.968 C 156.809 290.894,156.883 290.610,157.541 290.417 C 158.390 290.167,158.949 289.737,159.364 289.018 C 159.726 288.387,160.265 288.236,160.097 288.811 M221.984 289.135 C 221.691 290.397,221.656 290.367,223.374 290.312 C 225.078 290.258,225.419 290.479,224.612 291.114 C 224.248 291.401,224.085 291.416,223.008 291.268 C 221.594 291.072,221.632 291.039,221.346 292.720 C 221.234 293.378,220.998 294.689,220.821 295.633 C 220.161 299.161,221.129 300.001,223.700 298.134 C 224.265 297.725,224.235 298.212,223.667 298.690 C 220.537 301.323,218.148 300.408,218.906 296.866 C 219.895 292.243,219.977 291.150,219.346 291.002 C 218.695 290.850,218.748 290.531,219.448 290.400 C 220.268 290.246,220.865 289.797,221.317 288.993 C 221.786 288.159,222.191 288.245,221.984 289.135 M170.347 290.108 C 173.497 291.369,172.605 297.605,168.992 299.571 C 166.120 301.135,163.500 299.628,163.500 296.412 C 163.500 292.166,167.132 288.822,170.347 290.108 M182.078 290.229 C 182.559 290.711,182.732 291.750,182.530 292.958 C 182.349 294.038,182.357 294.038,182.908 292.949 C 184.198 290.399,186.366 289.137,187.559 290.242 C 188.087 290.731,188.170 292.374,187.765 294.300 C 186.792 298.930,186.902 299.641,188.391 298.333 C 189.388 297.458,189.523 297.928,188.542 298.858 C 185.942 301.322,184.965 300.238,185.830 295.849 C 186.555 292.171,186.473 291.167,185.445 291.167 C 184.482 291.167,183.336 292.702,182.463 295.163 C 182.081 296.239,181.333 299.125,181.333 299.523 C 181.333 299.857,180.998 300.000,180.214 300.000 L 179.621 300.000 179.729 299.292 C 179.788 298.902,179.943 298.021,180.074 297.333 C 181.111 291.895,181.098 291.167,179.968 291.167 C 178.619 291.167,177.063 294.112,176.052 298.583 L 175.750 299.917 174.958 299.967 C 174.023 300.028,174.054 300.241,174.584 297.450 C 175.768 291.206,175.771 291.167,175.099 291.167 C 174.900 291.167,174.478 291.389,174.160 291.660 C 173.246 292.441,172.918 292.120,173.792 291.298 C 175.988 289.234,177.616 289.579,177.198 292.021 C 176.908 293.708,176.962 293.855,177.493 292.833 C 178.797 290.329,180.953 289.104,182.078 290.229 M198.913 290.231 C 199.434 290.752,199.586 291.635,199.354 292.789 C 199.080 294.155,199.113 294.179,199.689 293.033 C 201.536 289.366,204.898 288.626,204.857 291.896 C 204.851 292.366,204.661 293.762,204.434 295.000 C 203.702 299.008,203.832 299.556,205.225 298.333 C 206.309 297.381,206.514 297.766,205.458 298.774 C 204.033 300.136,202.950 300.420,202.398 299.578 C 202.085 299.100,202.113 298.702,202.672 295.750 C 203.383 291.991,203.309 291.167,202.264 291.167 C 200.934 291.167,199.214 294.348,198.389 298.333 C 198.074 299.856,197.966 300.000,197.146 300.000 C 196.623 300.000,196.500 299.940,196.500 299.684 C 196.500 299.347,197.025 296.478,197.425 294.634 C 197.718 293.279,197.739 291.639,197.467 291.367 C 196.170 290.070,193.821 293.741,192.909 298.489 C 192.646 299.860,192.532 299.994,191.625 299.997 C 190.873 300.001,190.869 299.974,191.321 297.796 C 191.874 295.136,192.171 293.416,192.278 292.272 L 192.382 291.167 191.947 291.167 C 191.698 291.167,191.260 291.387,190.925 291.681 C 190.175 292.340,189.813 292.248,190.401 291.549 C 191.657 290.057,193.489 289.543,193.969 290.548 C 194.178 290.986,194.071 292.465,193.736 293.750 C 193.689 293.933,193.950 293.528,194.318 292.848 C 195.723 290.252,197.769 289.087,198.913 290.231 M216.258 290.242 C 219.100 293.085,208.112 309.014,205.058 306.479 C 204.059 305.650,205.116 304.662,206.957 304.704 C 208.661 304.743,209.034 304.552,210.201 303.038 L 210.885 302.153 210.780 299.855 C 210.614 296.203,210.119 293.468,209.399 292.223 C 208.777 291.148,207.676 290.956,207.132 291.827 C 206.943 292.129,206.500 292.306,206.500 292.080 C 206.500 291.799,207.461 290.615,207.917 290.333 C 210.294 288.864,212.075 291.774,212.285 297.473 L 212.379 300.029 213.047 298.889 C 215.062 295.452,215.447 294.005,214.831 292.194 C 214.396 290.918,214.463 290.238,215.047 290.003 C 215.631 289.768,215.821 289.806,216.258 290.242 M234.561 290.179 C 236.704 291.865,230.713 303.151,226.030 306.250 C 224.319 307.382,222.407 306.510,223.515 305.103 C 223.849 304.678,223.919 304.662,225.307 304.704 C 226.979 304.754,227.302 304.598,228.510 303.155 L 229.216 302.311 229.116 299.447 C 228.952 294.752,228.237 292.056,226.984 291.408 C 226.381 291.096,226.440 291.083,225.750 291.689 C 224.828 292.499,224.812 291.872,225.729 290.859 C 228.333 287.986,230.467 291.361,230.876 299.000 L 230.917 299.750 231.587 298.583 C 233.539 295.185,233.878 293.794,233.182 292.035 C 232.677 290.760,232.987 289.833,233.917 289.833 C 234.029 289.833,234.319 289.989,234.561 290.179 M243.114 290.011 C 244.617 290.581,244.779 292.333,243.328 292.333 C 242.787 292.333,242.607 292.173,242.199 291.333 C 241.627 290.153,239.921 290.522,239.172 291.989 C 236.863 296.515,239.615 300.822,243.200 298.295 C 243.604 298.011,243.776 298.270,243.434 298.647 C 241.975 300.259,238.701 300.593,237.522 299.250 C 234.445 295.745,238.885 288.409,243.114 290.011 M166.848 291.153 C 164.822 293.046,164.846 298.231,166.885 299.227 C 169.716 300.610,171.843 293.700,169.379 291.127 C 168.737 290.458,167.580 290.469,166.848 291.153 " stroke="none" fill="#64a4ab" fill-rule="evenodd"></path><path id="path1" d="M205.917 93.448 C 195.757 94.765,185.894 103.063,182.520 113.133 C 181.453 116.318,181.260 117.675,181.260 122.000 C 181.260 126.147,181.358 127.007,182.271 130.870 L 182.693 132.656 180.722 134.789 C 163.171 153.774,153.981 176.074,152.506 203.250 C 152.318 206.709,152.275 215.407,152.439 216.770 L 152.541 217.623 154.347 217.057 C 177.058 209.944,189.727 194.947,192.481 171.917 C 193.681 161.890,193.317 152.081,190.999 131.917 C 188.702 111.942,190.277 104.722,197.250 103.252 C 198.420 103.005,200.830 102.948,201.731 103.145 C 203.226 103.472,203.139 105.869,201.574 107.500 C 201.266 107.821,200.905 108.394,200.771 108.773 C 197.431 118.248,210.724 120.802,220.749 112.611 C 227.923 106.750,236.166 105.503,245.761 108.828 C 247.637 109.478,247.641 109.505,245.615 107.554 C 240.447 102.576,233.289 100.102,226.583 100.975 L 225.250 101.148 224.500 100.432 C 219.137 95.312,212.059 92.652,205.917 93.448 M214.616 101.659 C 216.083 102.554,216.322 104.408,215.144 105.750 C 213.547 107.569,210.667 106.389,210.667 103.917 C 210.667 101.888,212.899 100.612,214.616 101.659 " stroke="none" fill="#2c1c24" fill-rule="evenodd"></path><path id="path2" d="M217.728 128.264 C 219.469 145.421,216.871 169.748,211.828 183.506 C 211.544 184.282,211.248 185.104,211.172 185.333 C 208.624 192.952,202.705 202.373,196.432 208.791 L 193.947 211.333 207.015 211.335 C 219.685 211.337,228.150 211.506,231.907 211.834 C 232.909 211.921,233.749 211.973,233.772 211.950 C 233.833 211.889,230.860 209.444,229.213 208.200 C 224.138 204.367,218.877 201.860,214.292 201.090 C 213.518 200.960,213.496 201.105,214.567 199.282 C 219.717 190.516,222.002 181.464,220.887 174.250 L 220.784 173.583 222.850 175.585 C 228.188 180.754,232.716 183.137,239.292 184.235 L 239.833 184.325 239.831 183.287 C 239.779 159.401,232.105 139.281,218.855 128.296 L 217.627 127.278 217.728 128.264 M114.690 229.766 C 108.721 231.071,105.424 238.778,107.691 246.123 C 110.734 255.985,123.101 255.985,126.143 246.123 C 129.062 236.660,122.966 227.954,114.690 229.766 M305.833 229.813 C 298.810 231.412,295.490 240.387,299.113 247.979 C 301.762 253.528,309.251 255.280,314.375 251.548 L 315.167 250.972 315.167 246.069 L 315.167 241.167 311.417 241.167 L 307.667 241.167 307.667 242.333 L 307.667 243.500 310.170 243.500 L 312.674 243.500 312.629 246.620 L 312.583 249.740 311.655 250.214 C 308.310 251.925,304.033 250.718,302.097 247.519 C 300.287 244.527,300.191 239.127,301.890 235.923 C 304.054 231.843,309.103 230.744,312.680 233.575 L 313.402 234.147 313.993 233.464 C 314.969 232.336,314.969 232.340,314.151 231.628 C 312.063 229.808,308.895 229.117,305.833 229.813 M83.333 231.167 L 83.333 232.333 86.833 232.333 L 90.333 232.333 90.333 242.667 L 90.333 253.000 91.833 253.000 L 93.333 253.000 93.333 242.667 L 93.333 232.333 96.833 232.333 L 100.333 232.333 100.333 231.167 L 100.333 230.000 91.833 230.000 L 83.333 230.000 83.333 231.167 M135.667 241.494 L 135.667 253.000 137.023 253.000 L 138.379 253.000 138.269 244.542 C 138.208 239.890,138.115 235.483,138.063 234.750 C 137.940 233.037,138.097 233.219,138.995 235.833 C 139.664 237.779,140.701 240.658,143.137 247.333 C 143.689 248.846,144.192 250.215,144.255 250.375 C 144.345 250.605,144.568 250.667,145.310 250.667 L 146.252 250.667 146.613 249.708 C 147.625 247.028,150.721 238.491,151.343 236.667 C 152.672 232.768,152.830 232.701,152.513 236.167 C 152.414 237.253,152.333 241.484,152.333 245.570 L 152.333 253.000 153.667 253.000 L 155.000 253.000 155.000 241.494 L 155.000 229.989 153.209 230.036 L 151.418 230.083 150.808 231.833 C 150.473 232.796,149.807 234.671,149.328 236.000 C 148.850 237.329,147.808 240.329,147.013 242.667 C 146.219 245.004,145.497 246.942,145.409 246.974 C 145.322 247.005,144.669 245.355,143.960 243.307 C 143.250 241.259,142.137 238.121,141.486 236.333 C 140.835 234.546,140.059 232.408,139.761 231.583 L 139.220 230.083 137.443 230.036 L 135.667 229.989 135.667 241.494 M165.333 241.500 L 165.333 253.000 166.600 253.000 L 167.867 253.000 167.768 244.208 C 167.714 239.373,167.624 234.976,167.568 234.438 C 167.434 233.142,167.670 233.323,168.240 234.954 C 169.485 238.510,169.994 239.939,171.527 244.167 C 172.441 246.688,173.292 249.012,173.418 249.333 C 173.544 249.654,173.695 250.089,173.754 250.299 C 173.852 250.652,173.940 250.678,174.863 250.633 L 175.866 250.583 176.866 247.833 C 177.416 246.321,178.454 243.471,179.172 241.500 C 180.668 237.394,181.443 235.199,181.726 234.263 C 182.062 233.153,182.266 233.380,182.125 234.708 C 182.055 235.373,181.952 239.760,181.896 244.458 L 181.795 253.000 183.148 253.000 L 184.500 253.000 184.500 241.500 L 184.500 230.000 182.745 230.000 C 181.487 230.000,180.971 230.059,180.923 230.208 C 180.824 230.522,179.841 233.308,178.320 237.583 C 177.570 239.692,176.549 242.654,176.051 244.167 C 174.829 247.877,175.083 247.921,173.664 243.750 C 173.196 242.375,172.485 240.350,172.085 239.250 C 170.979 236.216,169.049 230.798,168.923 230.375 C 168.816 230.017,168.731 230.000,167.072 230.000 L 165.333 230.000 165.333 241.500 M191.723 230.125 C 191.822 230.287,195.682 238.177,197.270 241.462 L 198.500 244.007 198.500 248.504 L 198.500 253.000 200.000 253.000 L 201.500 253.000 201.500 248.521 L 201.500 244.043 203.978 238.980 C 205.342 236.195,206.811 233.204,207.243 232.333 C 208.525 229.750,208.567 230.000,206.859 230.000 L 205.393 230.000 204.999 230.875 C 203.838 233.454,203.574 234.033,202.981 235.308 C 202.625 236.074,202.333 236.738,202.333 236.784 C 202.333 236.994,200.101 241.500,199.998 241.500 C 199.933 241.500,199.415 240.431,198.847 239.125 C 198.278 237.819,197.123 235.234,196.281 233.381 L 194.750 230.012 193.198 230.006 C 192.345 230.003,191.681 230.056,191.723 230.125 M224.333 231.167 L 224.333 232.333 227.750 232.333 L 231.167 232.333 231.167 242.667 L 231.167 253.000 232.667 253.000 L 234.167 253.000 234.167 242.667 L 234.167 232.333 237.667 232.333 L 241.167 232.333 241.167 231.167 L 241.167 230.000 232.750 230.000 L 224.333 230.000 224.333 231.167 M253.913 230.208 C 253.871 230.323,252.595 234.092,251.078 238.583 C 249.561 243.075,247.841 248.156,247.257 249.875 L 246.195 253.000 247.652 253.000 L 249.109 253.000 249.986 250.208 C 250.469 248.673,250.962 247.117,251.082 246.750 L 251.300 246.083 255.545 246.039 L 259.791 245.994 259.966 246.456 C 260.143 246.921,260.318 247.475,261.411 251.042 L 262.011 253.000 263.506 253.000 C 264.328 253.000,265.000 252.952,265.000 252.893 C 265.000 252.834,264.703 251.915,264.340 250.851 C 263.453 248.252,258.071 232.353,257.634 231.042 L 257.286 230.000 255.638 230.000 C 254.471 230.000,253.967 230.061,253.913 230.208 M272.333 241.494 L 272.333 253.000 273.667 253.000 L 275.000 253.000 274.999 245.708 C 274.999 241.698,274.920 237.377,274.824 236.106 C 274.611 233.291,274.613 233.288,275.587 235.113 C 276.922 237.615,278.862 241.071,281.416 245.500 C 282.765 247.838,284.289 250.481,284.803 251.375 L 285.738 253.000 287.202 253.000 L 288.667 253.000 288.667 241.500 L 288.667 230.000 287.333 230.000 L 286.000 230.000 286.000 236.133 C 286.000 239.506,286.080 243.826,286.178 245.733 C 286.275 247.640,286.321 249.234,286.280 249.276 C 286.238 249.317,285.622 248.241,284.910 246.884 C 283.684 244.547,282.613 242.651,277.536 233.833 L 275.377 230.083 273.855 230.035 L 272.333 229.987 272.333 241.494 M119.562 232.644 C 125.401 235.518,125.250 247.726,119.341 250.481 C 117.244 251.458,114.504 250.953,112.688 249.254 C 109.910 246.655,109.142 240.045,111.130 235.833 C 112.684 232.539,116.453 231.113,119.562 232.644 M255.833 232.757 C 255.833 232.992,257.505 238.600,258.490 241.667 C 258.769 242.537,258.999 243.344,258.999 243.458 C 259.000 243.618,258.206 243.667,255.583 243.667 C 252.799 243.667,252.167 243.624,252.167 243.438 C 252.167 243.312,252.360 242.618,252.595 241.896 C 253.206 240.026,255.167 233.492,255.167 233.327 C 255.167 233.251,255.242 232.991,255.333 232.751 C 255.500 232.311,255.833 232.315,255.833 232.757 M159.499 289.003 C 159.244 289.619,158.463 290.300,157.862 290.431 C 156.978 290.623,156.902 290.705,157.458 290.859 C 158.147 291.050,158.148 290.971,157.398 295.109 C 156.600 299.512,156.695 299.917,158.528 299.916 C 159.768 299.915,160.510 299.599,161.542 298.630 C 162.112 298.095,162.153 298.023,161.750 298.264 C 160.722 298.878,160.401 298.998,159.781 298.999 C 158.286 299.001,158.228 298.638,159.018 294.176 C 159.632 290.701,159.479 290.923,161.099 291.169 C 162.362 291.360,162.413 291.355,162.702 290.998 C 163.215 290.365,163.085 290.312,161.309 290.435 L 159.618 290.551 159.714 290.151 C 160.095 288.570,159.965 287.878,159.499 289.003 M221.334 289.183 C 220.883 289.914,220.081 290.500,219.532 290.500 C 219.342 290.500,219.140 290.575,219.083 290.667 C 219.027 290.758,219.126 290.833,219.303 290.833 C 220.088 290.833,220.100 291.157,219.443 294.638 C 218.564 299.300,218.631 299.776,220.195 299.953 C 221.303 300.077,224.556 298.501,224.110 298.055 C 224.062 298.006,223.742 298.180,223.400 298.441 C 222.503 299.125,220.895 299.143,220.517 298.474 C 220.252 298.008,220.262 297.929,221.088 293.583 C 221.210 292.942,221.361 292.089,221.423 291.688 L 221.536 290.960 222.226 291.054 C 222.606 291.106,223.223 291.198,223.596 291.258 C 224.312 291.373,224.833 291.082,224.833 290.568 C 224.833 290.366,224.570 290.345,223.227 290.440 L 221.620 290.552 221.738 289.901 C 221.803 289.543,221.897 289.081,221.946 288.875 C 222.086 288.292,221.793 288.440,221.334 289.183 M167.219 290.315 C 163.096 292.239,162.194 299.168,165.961 299.976 C 169.782 300.796,173.553 295.356,171.758 291.616 C 171.050 290.142,168.907 289.528,167.219 290.315 M175.388 290.268 C 174.754 290.581,173.500 291.630,173.500 291.847 C 173.500 291.932,173.816 291.773,174.201 291.494 C 175.646 290.448,175.887 290.985,175.333 294.008 C 175.140 295.058,174.880 296.479,174.754 297.167 C 174.628 297.854,174.454 298.729,174.367 299.111 C 174.191 299.883,174.370 300.042,175.228 299.878 C 175.701 299.788,175.720 299.748,176.070 298.083 C 176.912 294.081,178.706 290.901,180.048 291.032 C 181.049 291.129,181.212 292.420,180.590 295.315 C 180.460 295.921,180.233 297.054,180.085 297.833 C 179.938 298.612,179.781 299.372,179.737 299.522 C 179.636 299.863,180.024 300.020,180.656 299.894 C 181.109 299.803,181.160 299.711,181.418 298.523 C 182.373 294.134,184.053 291.000,185.451 291.000 C 186.650 291.000,186.681 291.591,185.764 296.917 C 185.197 300.210,186.091 300.944,188.259 298.963 C 189.238 298.068,189.541 297.470,188.594 298.301 C 186.833 299.848,186.734 299.384,187.673 293.965 C 188.207 290.882,187.933 290.000,186.442 290.000 C 185.153 290.000,184.027 291.038,182.890 293.275 L 182.140 294.750 182.278 293.833 C 182.696 291.068,182.353 290.000,181.048 290.000 C 179.699 290.000,178.426 291.163,177.314 293.412 C 176.608 294.841,176.588 294.787,177.011 292.617 C 177.448 290.372,176.871 289.537,175.388 290.268 M192.074 290.335 C 191.381 290.678,189.956 292.000,190.279 292.000 C 190.378 292.000,190.557 291.883,190.676 291.739 C 190.944 291.416,191.730 291.000,192.072 291.000 C 192.667 291.000,192.556 292.175,191.415 297.954 C 191.006 300.030,191.043 300.140,192.067 299.865 C 192.521 299.743,192.569 299.645,192.844 298.288 C 193.670 294.207,195.438 291.000,196.862 291.000 C 197.806 291.000,198.049 292.083,197.596 294.271 C 197.466 294.901,197.237 296.092,197.086 296.917 C 196.936 297.742,196.746 298.715,196.665 299.079 C 196.487 299.874,197.296 300.309,197.949 299.767 C 197.967 299.753,198.104 299.149,198.253 298.426 C 199.141 294.129,200.952 290.892,202.390 291.032 C 203.394 291.130,203.467 291.655,202.916 294.833 C 202.355 298.066,202.264 298.869,202.398 299.402 C 202.625 300.304,203.781 300.117,205.068 298.971 C 206.196 297.965,206.301 297.606,205.227 298.426 C 203.888 299.448,203.574 298.894,204.062 296.372 C 204.963 291.703,204.994 290.994,204.324 290.324 C 203.192 289.192,201.017 290.591,199.620 293.349 C 199.006 294.563,198.997 294.571,199.123 293.833 C 199.989 288.735,196.434 288.522,194.084 293.531 C 193.432 294.920,193.419 294.903,193.747 293.083 C 194.258 290.258,193.788 289.486,192.074 290.335 M208.500 290.122 C 208.011 290.310,207.246 290.985,206.949 291.489 C 206.584 292.109,206.678 292.140,207.235 291.583 C 209.049 289.769,210.613 293.180,210.789 299.333 L 210.877 302.417 210.319 303.089 C 209.066 304.597,208.624 304.833,207.054 304.833 C 205.331 304.833,205.000 304.981,205.000 305.750 C 205.000 306.462,205.444 306.740,206.379 306.615 C 210.141 306.110,218.092 293.014,216.241 290.370 C 215.912 289.902,215.274 289.893,214.817 290.350 C 214.433 290.734,214.443 290.854,215.001 292.404 C 215.521 293.847,215.364 294.603,213.970 297.358 C 212.558 300.149,212.333 300.394,212.333 299.145 C 212.332 293.324,210.625 289.305,208.500 290.122 M226.747 290.226 C 226.209 290.467,225.167 291.552,225.167 291.870 C 225.167 291.976,225.377 291.861,225.634 291.615 C 227.492 289.834,228.977 293.137,229.274 299.710 C 229.383 302.133,229.378 302.192,228.990 302.715 C 227.646 304.534,227.122 304.833,225.284 304.833 C 223.686 304.833,223.333 305.015,223.333 305.839 C 223.333 306.403,223.717 306.667,224.531 306.665 C 228.212 306.655,236.851 292.541,234.571 290.262 C 233.527 289.218,232.692 290.544,233.349 292.202 C 234.002 293.851,233.570 295.449,231.534 298.915 L 230.750 300.250 230.650 298.000 C 230.394 292.241,228.898 289.261,226.747 290.226 M240.167 290.428 C 237.411 291.705,235.945 295.157,236.931 298.049 C 237.735 300.410,241.451 300.672,243.412 298.505 C 243.831 298.042,243.623 298.081,242.815 298.615 C 240.000 300.478,237.692 297.902,238.493 293.793 C 239.080 290.779,241.284 289.385,242.330 291.366 C 243.080 292.787,244.482 292.448,244.103 290.937 C 243.861 289.971,241.743 289.697,240.167 290.428 M169.232 290.849 C 171.046 292.276,170.892 297.187,168.980 298.915 C 166.540 301.119,164.292 297.301,165.573 293.130 C 166.242 290.950,167.982 289.866,169.232 290.849 " stroke="none" fill="#f3f3eb" fill-rule="evenodd"></path><path id="path3" d="M218.062 141.083 C 218.063 142.092,218.090 142.483,218.123 141.952 C 218.157 141.422,218.156 140.597,218.123 140.119 C 218.089 139.641,218.062 140.075,218.062 141.083 M217.539 154.167 C 217.539 154.487,217.573 154.619,217.615 154.458 C 217.657 154.298,217.657 154.035,217.615 153.875 C 217.573 153.715,217.539 153.846,217.539 154.167 M239.705 178.500 C 239.705 178.821,239.740 178.952,239.782 178.792 C 239.823 178.631,239.823 178.369,239.782 178.208 C 239.740 178.048,239.705 178.179,239.705 178.500 M239.879 183.667 C 239.879 184.079,239.911 184.248,239.951 184.042 C 239.991 183.835,239.991 183.498,239.951 183.292 C 239.911 183.085,239.879 183.254,239.879 183.667 M195.913 209.208 L 194.583 210.583 195.958 209.254 C 197.235 208.019,197.409 207.833,197.288 207.833 C 197.263 207.833,196.644 208.452,195.913 209.208 M198.125 211.456 C 198.606 211.490,199.394 211.490,199.875 211.456 C 200.356 211.423,199.963 211.395,199.000 211.395 C 198.037 211.395,197.644 211.423,198.125 211.456 M217.542 211.455 C 217.885 211.491,218.448 211.491,218.792 211.455 C 219.135 211.419,218.854 211.389,218.167 211.389 C 217.479 211.389,217.198 211.419,217.542 211.455 M224.208 211.619 C 224.460 211.658,224.873 211.658,225.125 211.619 C 225.377 211.581,225.171 211.550,224.667 211.550 C 224.162 211.550,223.956 211.581,224.208 211.619 M228.792 211.784 C 228.998 211.824,229.335 211.824,229.542 211.784 C 229.748 211.745,229.579 211.712,229.167 211.712 C 228.754 211.712,228.585 211.745,228.792 211.784 M272.246 241.500 C 272.246 247.963,272.266 250.606,272.292 247.375 C 272.317 244.144,272.317 238.856,272.292 235.625 C 272.266 232.394,272.246 235.037,272.246 241.500 M110.240 232.042 L 109.750 232.583 110.292 232.094 C 110.590 231.825,110.833 231.581,110.833 231.552 C 110.833 231.423,110.696 231.537,110.240 232.042 M116.542 232.115 C 116.702 232.157,116.965 232.157,117.125 232.115 C 117.285 232.073,117.154 232.039,116.833 232.039 C 116.513 232.039,116.381 232.073,116.542 232.115 M308.127 232.118 C 308.334 232.158,308.634 232.156,308.794 232.115 C 308.953 232.073,308.783 232.040,308.417 232.042 C 308.050 232.044,307.920 232.078,308.127 232.118 M85.042 232.458 C 86.027 232.487,87.640 232.487,88.625 232.458 C 89.610 232.428,88.804 232.404,86.833 232.404 C 84.862 232.404,84.056 232.428,85.042 232.458 M95.042 232.458 C 96.027 232.487,97.640 232.487,98.625 232.458 C 99.610 232.428,98.804 232.404,96.833 232.404 C 94.862 232.404,94.056 232.428,95.042 232.458 M225.875 232.458 C 226.860 232.487,228.473 232.487,229.458 232.458 C 230.444 232.428,229.637 232.404,227.667 232.404 C 225.696 232.404,224.890 232.428,225.875 232.458 M234.243 232.542 C 234.199 232.656,234.184 237.325,234.208 242.917 L 234.253 253.083 234.293 242.795 L 234.333 232.507 237.792 232.458 L 241.250 232.410 237.786 232.371 C 235.141 232.342,234.304 232.383,234.243 232.542 M152.372 236.167 C 152.372 236.487,152.406 236.619,152.448 236.458 C 152.490 236.298,152.490 236.035,152.448 235.875 C 152.406 235.715,152.372 235.846,152.372 236.167 M138.209 237.083 C 138.211 237.450,138.245 237.580,138.285 237.373 C 138.324 237.166,138.323 236.866,138.281 236.706 C 138.239 236.547,138.207 236.717,138.209 237.083 M275.056 239.500 C 275.056 240.188,275.085 240.469,275.121 240.125 C 275.157 239.781,275.157 239.219,275.121 238.875 C 275.085 238.531,275.056 238.813,275.056 239.500 M167.910 245.917 C 167.910 249.950,167.932 251.576,167.958 249.530 C 167.985 247.485,167.985 244.185,167.958 242.197 C 167.932 240.209,167.910 241.883,167.910 245.917 M181.743 246.083 C 181.743 249.933,181.765 251.485,181.792 249.530 C 181.818 247.576,181.818 244.426,181.791 242.530 C 181.765 240.635,181.743 242.233,181.743 246.083 M300.720 241.500 C 300.720 242.096,300.750 242.340,300.787 242.042 C 300.824 241.744,300.824 241.256,300.787 240.958 C 300.750 240.660,300.720 240.904,300.720 241.500 M110.048 241.417 C 110.049 241.875,110.081 242.043,110.120 241.789 C 110.158 241.536,110.157 241.161,110.117 240.956 C 110.078 240.751,110.046 240.958,110.048 241.417 M123.714 241.417 C 123.716 241.875,123.748 242.043,123.786 241.789 C 123.825 241.536,123.824 241.161,123.784 240.956 C 123.744 240.751,123.713 240.958,123.714 241.417 M258.833 243.330 C 258.833 243.429,257.516 243.512,255.458 243.542 L 252.083 243.591 255.542 243.629 C 258.522 243.661,259.000 243.632,259.000 243.417 C 259.000 243.279,258.962 243.167,258.917 243.167 C 258.871 243.167,258.833 243.240,258.833 243.330 M308.883 243.624 C 309.597 243.655,310.722 243.655,311.383 243.624 C 312.043 243.592,311.458 243.566,310.083 243.567 C 308.708 243.567,308.168 243.593,308.883 243.624 M302.667 248.385 C 302.667 248.414,302.910 248.658,303.208 248.927 L 303.750 249.417 303.260 248.875 C 302.804 248.370,302.667 248.257,302.667 248.385 M300.833 250.750 C 301.144 251.071,301.436 251.333,301.482 251.333 C 301.528 251.333,301.311 251.071,301.000 250.750 C 300.689 250.429,300.397 250.167,300.351 250.167 C 300.305 250.167,300.522 250.429,300.833 250.750 M116.544 253.620 C 116.797 253.658,117.172 253.657,117.377 253.617 C 117.582 253.578,117.375 253.546,116.917 253.548 C 116.458 253.549,116.291 253.581,116.544 253.620 M307.708 253.619 C 307.960 253.658,308.373 253.658,308.625 253.619 C 308.877 253.581,308.671 253.550,308.167 253.550 C 307.662 253.550,307.456 253.581,307.708 253.619 M221.667 290.367 C 221.667 290.440,221.929 290.500,222.250 290.500 C 222.571 290.500,222.833 290.471,222.833 290.435 C 222.833 290.399,222.571 290.339,222.250 290.302 C 221.929 290.264,221.667 290.294,221.667 290.367 M160.042 290.448 C 160.202 290.490,160.465 290.490,160.625 290.448 C 160.785 290.406,160.654 290.372,160.333 290.372 C 160.012 290.372,159.881 290.406,160.042 290.448 M167.875 290.615 C 168.035 290.657,168.298 290.657,168.458 290.615 C 168.619 290.573,168.487 290.539,168.167 290.539 C 167.846 290.539,167.715 290.573,167.875 290.615 M240.875 290.615 C 241.035 290.657,241.298 290.657,241.458 290.615 C 241.619 290.573,241.487 290.539,241.167 290.539 C 240.846 290.539,240.715 290.573,240.875 290.615 M173.740 291.375 L 173.250 291.917 173.792 291.427 C 174.297 290.971,174.410 290.833,174.281 290.833 C 174.252 290.833,174.009 291.077,173.740 291.375 M190.573 291.375 L 190.083 291.917 190.625 291.427 C 191.130 290.971,191.243 290.833,191.115 290.833 C 191.086 290.833,190.842 291.077,190.573 291.375 M199.379 291.833 C 199.379 292.246,199.411 292.415,199.451 292.208 C 199.491 292.002,199.491 291.665,199.451 291.458 C 199.411 291.252,199.379 291.421,199.379 291.833 M233.545 293.667 C 233.545 294.079,233.578 294.248,233.618 294.042 C 233.657 293.835,233.657 293.498,233.618 293.292 C 233.578 293.085,233.545 293.254,233.545 293.667 M209.242 304.875 L 208.583 305.583 209.292 304.925 C 209.950 304.312,210.077 304.167,209.950 304.167 C 209.923 304.167,209.605 304.485,209.242 304.875 M224.875 304.782 C 225.035 304.823,225.298 304.823,225.458 304.782 C 225.619 304.740,225.487 304.705,225.167 304.705 C 224.846 304.705,224.715 304.740,224.875 304.782 " stroke="none" fill="#93c0bf" fill-rule="evenodd"></path><path id="path4" d="M217.714 129.083 C 217.716 129.542,217.748 129.709,217.786 129.456 C 217.825 129.203,217.824 128.828,217.784 128.623 C 217.744 128.418,217.713 128.625,217.714 129.083 M220.750 130.000 C 221.108 130.367,221.438 130.667,221.484 130.667 C 221.530 130.667,221.275 130.367,220.917 130.000 C 220.559 129.633,220.228 129.333,220.182 129.333 C 220.137 129.333,220.392 129.633,220.750 130.000 M223.167 132.417 C 223.478 132.737,223.770 133.000,223.815 133.000 C 223.861 133.000,223.644 132.737,223.333 132.417 C 223.022 132.096,222.730 131.833,222.685 131.833 C 222.639 131.833,222.856 132.096,223.167 132.417 M217.875 132.583 C 217.877 132.950,217.911 133.080,217.951 132.873 C 217.991 132.666,217.990 132.366,217.948 132.206 C 217.906 132.047,217.874 132.217,217.875 132.583 M218.061 137.750 C 218.061 138.667,218.089 139.020,218.123 138.536 C 218.157 138.052,218.156 137.302,218.122 136.869 C 218.088 136.437,218.060 136.833,218.061 137.750 M218.061 144.417 C 218.061 145.333,218.089 145.687,218.123 145.203 C 218.157 144.718,218.156 143.968,218.122 143.536 C 218.088 143.104,218.060 143.500,218.061 144.417 M217.872 149.500 C 217.872 149.821,217.906 149.952,217.948 149.792 C 217.990 149.631,217.990 149.369,217.948 149.208 C 217.906 149.048,217.872 149.179,217.872 149.500 M217.709 152.583 C 217.711 152.950,217.745 153.080,217.785 152.873 C 217.824 152.666,217.823 152.366,217.781 152.206 C 217.739 152.047,217.707 152.217,217.709 152.583 M222.333 175.250 C 222.924 175.846,223.445 176.333,223.490 176.333 C 223.536 176.333,223.091 175.846,222.500 175.250 C 221.909 174.654,221.389 174.167,221.343 174.167 C 221.297 174.167,221.743 174.654,222.333 175.250 M239.720 180.000 C 239.720 180.596,239.750 180.840,239.787 180.542 C 239.824 180.244,239.824 179.756,239.787 179.458 C 239.750 179.160,239.720 179.404,239.720 180.000 M194.083 211.000 L 193.604 211.500 195.510 211.465 L 197.417 211.430 195.685 211.375 L 193.953 211.321 194.339 210.911 C 194.551 210.685,194.688 210.500,194.644 210.500 C 194.599 210.500,194.347 210.725,194.083 211.000 M219.958 211.455 C 220.348 211.490,220.985 211.490,221.375 211.455 C 221.765 211.420,221.446 211.392,220.667 211.392 C 219.887 211.392,219.569 211.420,219.958 211.455 M225.955 211.620 C 226.250 211.657,226.775 211.658,227.121 211.622 C 227.467 211.586,227.225 211.555,226.583 211.555 C 225.942 211.554,225.659 211.583,225.955 211.620 M230.042 211.782 C 230.202 211.823,230.465 211.823,230.625 211.782 C 230.785 211.740,230.654 211.705,230.333 211.705 C 230.012 211.705,229.881 211.740,230.042 211.782 M87.542 229.958 C 89.902 229.984,93.765 229.984,96.125 229.958 C 98.485 229.932,96.554 229.911,91.833 229.911 C 87.112 229.911,85.181 229.932,87.542 229.958 M136.167 229.941 C 137.547 230.064,139.296 230.073,139.225 229.958 C 139.182 229.890,138.345 229.846,137.365 229.861 C 136.385 229.877,135.846 229.913,136.167 229.941 M151.442 229.958 C 151.399 230.027,151.938 230.063,152.640 230.038 C 154.880 229.959,155.136 229.890,153.302 229.861 C 152.321 229.846,151.485 229.890,151.442 229.958 M165.243 230.042 C 165.200 230.156,165.183 235.387,165.207 241.667 L 165.250 253.083 166.500 253.094 L 167.750 253.104 166.542 253.045 L 165.333 252.986 165.333 241.499 L 165.333 230.011 167.125 229.958 L 168.917 229.904 167.120 229.869 C 165.809 229.843,165.301 229.890,165.243 230.042 M182.708 229.955 L 184.500 230.011 184.500 241.499 L 184.500 252.987 183.125 253.046 L 181.750 253.106 183.167 253.095 L 184.583 253.083 184.583 241.500 L 184.583 229.917 182.750 229.907 L 180.917 229.898 182.708 229.955 M192.375 229.956 C 192.810 229.990,193.523 229.990,193.958 229.956 C 194.394 229.922,194.037 229.893,193.167 229.893 C 192.296 229.893,191.940 229.922,192.375 229.956 M206.042 229.956 C 206.477 229.990,207.190 229.990,207.625 229.956 C 208.060 229.922,207.704 229.893,206.833 229.893 C 205.963 229.893,205.606 229.922,206.042 229.956 M224.200 231.125 L 224.233 232.417 224.290 231.210 L 224.348 230.003 232.799 229.958 L 241.250 229.914 232.708 229.873 L 224.167 229.833 224.200 231.125 M253.942 229.958 C 253.899 230.027,254.401 230.063,255.057 230.038 C 257.201 229.956,257.448 229.890,255.718 229.861 C 254.784 229.846,253.985 229.890,253.942 229.958 M272.750 229.939 C 273.928 230.062,275.463 230.074,275.391 229.958 C 275.349 229.890,274.624 229.845,273.782 229.860 C 272.939 229.875,272.475 229.910,272.750 229.939 M287.292 229.957 L 288.667 230.013 288.667 241.500 L 288.667 252.987 287.208 253.046 L 285.750 253.105 287.250 253.094 L 288.750 253.083 288.793 241.458 L 288.836 229.833 287.376 229.867 L 285.917 229.901 287.292 229.957 M303.240 234.042 L 302.750 234.583 303.292 234.094 C 303.797 233.638,303.910 233.500,303.781 233.500 C 303.752 233.500,303.509 233.744,303.240 234.042 M152.542 234.750 C 152.544 235.117,152.578 235.247,152.618 235.040 C 152.658 234.832,152.656 234.532,152.615 234.373 C 152.573 234.214,152.540 234.383,152.542 234.750 M167.539 234.667 C 167.539 234.987,167.573 235.119,167.615 234.958 C 167.657 234.798,167.657 234.535,167.615 234.375 C 167.573 234.215,167.539 234.346,167.539 234.667 M181.879 237.667 C 181.879 238.079,181.911 238.248,181.951 238.042 C 181.991 237.835,181.991 237.498,181.951 237.292 C 181.911 237.085,181.879 237.254,181.879 237.667 M138.217 238.500 C 138.217 239.004,138.248 239.210,138.286 238.958 C 138.324 238.706,138.324 238.294,138.286 238.042 C 138.248 237.790,138.217 237.996,138.217 238.500 M110.042 240.083 C 110.044 240.450,110.078 240.580,110.118 240.373 C 110.158 240.166,110.156 239.866,110.115 239.706 C 110.073 239.547,110.040 239.717,110.042 240.083 M152.247 246.333 L 152.250 253.083 153.583 253.093 L 154.917 253.104 153.627 253.045 L 152.337 252.987 152.291 246.285 L 152.244 239.583 152.247 246.333 M297.705 240.000 C 297.705 240.321,297.740 240.452,297.782 240.292 C 297.823 240.131,297.823 239.869,297.782 239.708 C 297.740 239.548,297.705 239.679,297.705 240.000 M275.040 246.785 L 275.000 252.987 273.625 253.043 L 272.250 253.099 273.630 253.133 C 275.346 253.175,275.180 253.895,275.125 246.666 L 275.079 240.583 275.040 246.785 M311.414 241.123 L 315.162 241.173 315.210 246.045 L 315.258 250.917 315.254 246.000 L 315.250 241.083 311.458 241.079 L 307.666 241.074 311.414 241.123 M110.042 242.750 C 110.044 243.117,110.078 243.247,110.118 243.040 C 110.158 242.832,110.156 242.532,110.115 242.373 C 110.073 242.214,110.040 242.383,110.042 242.750 M312.500 246.617 C 312.454 248.377,312.475 249.759,312.546 249.688 C 312.616 249.617,312.654 248.177,312.629 246.488 L 312.583 243.417 312.500 246.617 M286.053 244.667 C 286.053 245.262,286.084 245.506,286.121 245.208 C 286.158 244.910,286.158 244.423,286.121 244.125 C 286.084 243.827,286.053 244.071,286.053 244.667 M121.075 249.208 L 120.417 249.917 121.125 249.258 C 121.784 248.645,121.910 248.500,121.784 248.500 C 121.757 248.500,121.438 248.819,121.075 249.208 M110.250 250.833 C 110.608 251.200,110.938 251.500,110.984 251.500 C 111.030 251.500,110.775 251.200,110.417 250.833 C 110.059 250.467,109.728 250.167,109.682 250.167 C 109.637 250.167,109.892 250.467,110.250 250.833 M123.406 250.875 L 122.917 251.417 123.458 250.927 C 123.963 250.471,124.077 250.333,123.948 250.333 C 123.919 250.333,123.675 250.577,123.406 250.875 M144.792 250.787 C 145.090 250.824,145.577 250.824,145.875 250.787 C 146.173 250.750,145.929 250.720,145.333 250.720 C 144.737 250.720,144.494 250.750,144.792 250.787 M174.292 250.787 C 174.590 250.824,175.077 250.824,175.375 250.787 C 175.673 250.750,175.429 250.720,174.833 250.720 C 174.237 250.720,173.994 250.750,174.292 250.787 M116.461 250.954 C 116.761 250.991,117.211 250.990,117.461 250.952 C 117.712 250.914,117.467 250.884,116.917 250.885 C 116.367 250.886,116.162 250.917,116.461 250.954 M307.792 250.954 C 308.090 250.991,308.577 250.991,308.875 250.954 C 309.173 250.917,308.929 250.887,308.333 250.887 C 307.737 250.887,307.494 250.917,307.792 250.954 M261.876 252.833 C 261.951 253.109,264.764 253.302,265.019 253.049 C 265.092 252.976,264.469 252.941,263.635 252.971 C 262.515 253.011,262.078 252.967,261.963 252.804 C 261.841 252.630,261.822 252.636,261.876 252.833 M91.042 253.123 C 91.477 253.157,92.190 253.157,92.625 253.123 C 93.060 253.088,92.704 253.060,91.833 253.060 C 90.962 253.060,90.606 253.088,91.042 253.123 M136.296 253.122 C 136.688 253.157,137.288 253.157,137.629 253.121 C 137.971 253.085,137.650 253.057,136.917 253.057 C 136.183 253.058,135.904 253.087,136.296 253.122 M199.208 253.123 C 199.644 253.157,200.356 253.157,200.792 253.123 C 201.227 253.088,200.871 253.060,200.000 253.060 C 199.129 253.060,198.773 253.088,199.208 253.123 M231.875 253.123 C 232.310 253.157,233.023 253.157,233.458 253.123 C 233.894 253.088,233.537 253.060,232.667 253.060 C 231.796 253.060,231.440 253.088,231.875 253.123 M246.880 253.123 C 247.318 253.157,247.993 253.157,248.380 253.122 C 248.767 253.087,248.408 253.059,247.583 253.059 C 246.758 253.060,246.442 253.088,246.880 253.123 M168.708 289.948 C 168.869 289.990,169.131 289.990,169.292 289.948 C 169.452 289.906,169.321 289.872,169.000 289.872 C 168.679 289.872,168.548 289.906,168.708 289.948 M201.073 291.042 L 200.583 291.583 201.125 291.094 C 201.630 290.638,201.743 290.500,201.615 290.500 C 201.586 290.500,201.342 290.744,201.073 291.042 M216.548 291.583 C 216.549 292.042,216.581 292.209,216.620 291.956 C 216.658 291.703,216.657 291.328,216.617 291.123 C 216.578 290.918,216.546 291.125,216.548 291.583 M159.611 291.111 C 159.550 291.172,159.501 291.303,159.503 291.403 C 159.504 291.523,159.546 291.519,159.628 291.392 C 159.695 291.286,159.938 291.165,160.167 291.123 L 160.583 291.045 160.153 291.023 C 159.916 291.010,159.672 291.050,159.611 291.111 M221.708 291.115 C 221.869 291.157,222.131 291.157,222.292 291.115 C 222.452 291.073,222.321 291.039,222.000 291.039 C 221.679 291.039,221.548 291.073,221.708 291.115 M238.324 291.625 L 237.750 292.250 238.375 291.676 C 238.719 291.360,239.000 291.078,239.000 291.051 C 239.000 290.923,238.859 291.043,238.324 291.625 M219.872 291.667 C 219.872 291.987,219.906 292.119,219.948 291.958 C 219.990 291.798,219.990 291.535,219.948 291.375 C 219.906 291.215,219.872 291.346,219.872 291.667 M190.616 291.755 C 190.359 291.982,190.214 292.167,190.295 292.167 C 190.376 292.167,190.618 291.979,190.833 291.750 C 191.331 291.220,191.221 291.222,190.616 291.755 M173.835 291.748 C 173.722 291.885,173.562 291.955,173.481 291.905 C 173.400 291.855,173.333 291.893,173.333 291.990 C 173.333 292.266,173.586 292.198,173.917 291.833 C 174.083 291.650,174.178 291.500,174.130 291.500 C 174.081 291.500,173.948 291.612,173.835 291.748 M203.209 292.417 C 203.211 292.783,203.245 292.914,203.285 292.706 C 203.324 292.499,203.323 292.199,203.281 292.040 C 203.239 291.880,203.207 292.050,203.209 292.417 M172.205 293.667 C 172.205 293.987,172.240 294.119,172.282 293.958 C 172.323 293.798,172.323 293.535,172.282 293.375 C 172.240 293.215,172.205 293.346,172.205 293.667 M215.205 293.667 C 215.205 293.987,215.240 294.119,215.282 293.958 C 215.323 293.798,215.323 293.535,215.282 293.375 C 215.240 293.215,215.205 293.346,215.205 293.667 M182.172 294.258 C 182.176 294.689,182.199 294.712,182.356 294.442 C 182.484 294.222,182.482 294.082,182.351 293.951 C 182.216 293.816,182.168 293.900,182.172 294.258 M165.220 295.667 C 165.220 296.262,165.250 296.506,165.287 296.208 C 165.324 295.910,165.324 295.423,165.287 295.125 C 165.250 294.827,165.220 295.071,165.220 295.667 M163.550 296.333 C 163.550 296.837,163.581 297.044,163.619 296.792 C 163.658 296.540,163.658 296.127,163.619 295.875 C 163.581 295.623,163.550 295.829,163.550 296.333 M236.548 296.250 C 236.549 296.708,236.581 296.876,236.620 296.623 C 236.658 296.369,236.657 295.994,236.617 295.789 C 236.578 295.584,236.546 295.792,236.548 296.250 M212.205 297.000 C 212.205 297.321,212.240 297.452,212.282 297.292 C 212.323 297.131,212.323 296.869,212.282 296.708 C 212.240 296.548,212.205 296.679,212.205 297.000 M220.375 297.750 C 220.377 298.117,220.411 298.247,220.451 298.040 C 220.491 297.832,220.490 297.532,220.448 297.373 C 220.406 297.214,220.374 297.383,220.375 297.750 M230.667 299.000 C 230.667 299.672,230.717 300.172,230.779 300.110 C 230.896 299.993,230.858 297.969,230.737 297.848 C 230.698 297.809,230.667 298.328,230.667 299.000 M229.228 300.667 C 229.228 301.629,229.256 302.023,229.290 301.542 C 229.323 301.060,229.323 300.273,229.290 299.792 C 229.256 299.310,229.228 299.704,229.228 300.667 M239.542 300.115 C 239.702 300.157,239.965 300.157,240.125 300.115 C 240.285 300.073,240.154 300.039,239.833 300.039 C 239.512 300.039,239.381 300.073,239.542 300.115 M227.658 304.792 L 227.083 305.417 227.708 304.842 C 228.290 304.308,228.410 304.167,228.283 304.167 C 228.255 304.167,227.974 304.448,227.658 304.792 " stroke="none" fill="#a8ccc8" fill-rule="evenodd"></path></g></svg>